<?xml version="1.0" encoding="UTF-8" standalone="no"?><!DOCTYPE svg PUBLIC "-//W3C//DTD SVG 1.1//EN" "http://www.w3.org/Graphics/SVG/1.1/DTD/svg11.dtd"><svg width="100%" height="100%" viewBox="0 0 463 141" version="1.1" xmlns="http://www.w3.org/2000/svg" xmlns:xlink="http://www.w3.org/1999/xlink" xml:space="preserve" xmlns:serif="http://www.serif.com/" style="fill-rule:evenodd;clip-rule:evenodd;stroke-linejoin:round;stroke-miterlimit:2;"><g id="Pre-brand-work" serif:id="Pre-brand work"></g><g id="Font-Test" serif:id="Font Test"></g><rect id="Sentzel-Wordmark" x="0" y="0" width="462.162" height="140.98" style="fill:none;"/><g><g transform="matrix(79.362613,0,0,79.362613,39.8919,98.104355)"><path d="M0.27,0.01c-0.072,0 -0.129,-0.015 -0.171,-0.045c-0.042,-0.03 -0.064,-0.073 -0.068,-0.127l0.121,0c0.004,0.026 0.016,0.045 0.036,0.058c0.02,0.013 0.049,0.019 0.087,0.019c0.064,0 0.095,-0.019 0.095,-0.056c0,-0.015 -0.005,-0.027 -0.014,-0.035c-0.01,-0.009 -0.026,-0.015 -0.048,-0.019l-0.111,-0.021c-0.098,-0.019 -0.147,-0.065 -0.147,-0.138c-0,-0.047 0.019,-0.085 0.056,-0.113c0.037,-0.028 0.089,-0.042 0.154,-0.042c0.066,0 0.118,0.014 0.157,0.043c0.039,0.029 0.06,0.069 0.064,0.121l-0.12,0c-0.006,-0.025 -0.017,-0.043 -0.034,-0.054c-0.017,-0.011 -0.042,-0.017 -0.073,-0.017c-0.028,0 -0.05,0.004 -0.065,0.013c-0.015,0.009 -0.023,0.022 -0.023,0.039c-0,0.013 0.005,0.023 0.014,0.031c0.009,0.008 0.024,0.014 0.045,0.018l0.112,0.022c0.051,0.01 0.089,0.026 0.113,0.05c0.024,0.023 0.036,0.055 0.036,0.094c0,0.051 -0.019,0.09 -0.056,0.119c-0.037,0.028 -0.091,0.043 -0.16,0.043Z" style="fill-rule:nonzero;"/></g><g transform="matrix(79.362613,0,0,79.362613,78.118225,98.104355)"><path d="M0.294,0.01c-0.053,0 -0.1,-0.011 -0.139,-0.032c-0.039,-0.021 -0.07,-0.052 -0.091,-0.091c-0.021,-0.039 -0.032,-0.085 -0.032,-0.139c-0,-0.053 0.011,-0.099 0.032,-0.138c0.021,-0.039 0.051,-0.068 0.09,-0.089c0.039,-0.021 0.084,-0.031 0.137,-0.031c0.051,0 0.095,0.01 0.132,0.03c0.037,0.02 0.065,0.048 0.085,0.085c0.02,0.037 0.03,0.08 0.03,0.131l0,0.044l-0.385,0c0.005,0.042 0.019,0.074 0.044,0.097c0.025,0.023 0.058,0.034 0.099,0.034c0.031,0 0.056,-0.006 0.075,-0.017c0.019,-0.011 0.033,-0.028 0.04,-0.051l0.125,0c-0.011,0.053 -0.038,0.094 -0.08,0.124c-0.042,0.03 -0.095,0.044 -0.159,0.044Zm-0.14,-0.315l0.263,0c-0.005,-0.034 -0.018,-0.061 -0.04,-0.079c-0.022,-0.018 -0.051,-0.027 -0.088,-0.027c-0.036,-0 -0.066,0.009 -0.089,0.027c-0.023,0.018 -0.039,0.044 -0.046,0.079Z" style="fill-rule:nonzero;"/></g><g transform="matrix(79.362613,0,0,79.362613,120.709494,98.104355)"><path d="M0.09,-0l0,-0.376l-0.062,0l0,-0.124l0.127,0l0,0.08l0.035,0c0.019,-0.028 0.043,-0.05 0.072,-0.066c0.03,-0.016 0.066,-0.023 0.109,-0.023c0.068,0 0.121,0.019 0.158,0.057c0.038,0.038 0.057,0.088 0.057,0.151l0,0.301l-0.124,-0l0,-0.279c0,-0.039 -0.011,-0.069 -0.032,-0.09c-0.021,-0.02 -0.052,-0.031 -0.093,-0.031c-0.04,0 -0.071,0.01 -0.092,0.031c-0.021,0.02 -0.032,0.05 -0.032,0.09l0,0.279l-0.124,-0Z" style="fill-rule:nonzero;"/></g><g transform="matrix(79.362613,0,0,79.362613,169.319094,98.104355)"><path d="M0.207,-0c-0.033,-0 -0.058,-0.008 -0.076,-0.025c-0.018,-0.017 -0.027,-0.042 -0.027,-0.076l0,-0.302l-0.088,0l0,-0.097l0.09,0l0,-0.15l0.121,0l0,0.15l0.12,0l0,0.097l-0.119,0l0,0.306l0.131,0l0,0.097l-0.152,-0Z" style="fill-rule:nonzero;"/></g><g transform="matrix(79.362613,0,0,79.362613,200.270513,98.104355)"><path d="M0.028,-0l0,-0.077l0.273,-0.324l-0.258,0l0,-0.099l0.413,0l0,0.077l-0.273,0.324l0.278,0l0,0.099l-0.433,-0Z" style="fill-rule:nonzero;"/></g><g transform="matrix(79.362613,0,0,79.362613,235.322334,98.104355)"><path d="M0.294,0.01c-0.053,0 -0.1,-0.011 -0.139,-0.032c-0.039,-0.021 -0.07,-0.052 -0.091,-0.091c-0.021,-0.039 -0.032,-0.085 -0.032,-0.139c-0,-0.053 0.011,-0.099 0.032,-0.138c0.021,-0.039 0.051,-0.068 0.09,-0.089c0.039,-0.021 0.084,-0.031 0.137,-0.031c0.051,0 0.095,0.01 0.132,0.03c0.037,0.02 0.065,0.048 0.085,0.085c0.02,0.037 0.03,0.08 0.03,0.131l0,0.044l-0.385,0c0.005,0.042 0.019,0.074 0.044,0.097c0.025,0.023 0.058,0.034 0.099,0.034c0.031,0 0.056,-0.006 0.075,-0.017c0.019,-0.011 0.033,-0.028 0.04,-0.051l0.125,0c-0.011,0.053 -0.038,0.094 -0.08,0.124c-0.042,0.03 -0.095,0.044 -0.159,0.044Zm-0.14,-0.315l0.263,0c-0.005,-0.034 -0.018,-0.061 -0.04,-0.079c-0.022,-0.018 -0.051,-0.027 -0.088,-0.027c-0.036,-0 -0.066,0.009 -0.089,0.027c-0.023,0.018 -0.039,0.044 -0.046,0.079Z" style="fill-rule:nonzero;"/></g><g transform="matrix(79.362613,0,0,79.362613,277.913603,98.104355)"><rect x="0.062" y="-0.7" width="0.124" height="0.7" style="fill-rule:nonzero;"/></g><g transform="matrix(79.362613,0,0,79.362613,297.621985,98.104355)"></g><g transform="matrix(55.127052,0,0,55.127052,421.811316,93.127888)"></g><text x="319.005px" y="93.128px" style="font-family:'NeutralSans-Regular', 'Neutral Sans';font-size:55.127px;">labs</text></g></svg>