<?xml version="1.0" encoding="UTF-8" standalone="no"?>
<!DOCTYPE svg PUBLIC "-//W3C//DTD SVG 1.1//EN" "http://www.w3.org/Graphics/SVG/1.1/DTD/svg11.dtd">
<svg width="100%" height="100%" viewBox="0 0 1701 567" version="1.1" xmlns="http://www.w3.org/2000/svg" xmlns:xlink="http://www.w3.org/1999/xlink" xml:space="preserve" xmlns:serif="http://www.serif.com/" style="fill-rule:evenodd;clip-rule:evenodd;stroke-linejoin:round;stroke-miterlimit:2;">
    <g id="wordmark" transform="matrix(0.883217,0,0,0.965125,-25687.797724,-1018.184269)">
        <rect x="29084.371" y="1054.977" width="1925.674" height="587.415" style="fill:white;fill-opacity:0;"/>
        <g id="wordmark1" serif:id="wordmark" transform="matrix(1.114586,0,0,1.036135,-3383.185595,-61.914278)">
            <g transform="matrix(1.015826,0,0,1,25750.516514,278.871367)">
                <g transform="matrix(0.890286,0,0,0.890286,-19484.143975,-851.112925)">
                    <path d="M25905.256,2275.714C25878.827,2275.714 25857.974,2270.191 25842.698,2259.145C25827.422,2248.099 25819.11,2232.657 25817.762,2212.818L25858.846,2212.818C25860.388,2223.055 25865.047,2230.629 25872.826,2235.539C25880.604,2240.45 25891.964,2242.905 25906.905,2242.905C25932.411,2242.905 25945.165,2235.249 25945.165,2219.937C25945.165,2213.705 25943.221,2208.852 25939.335,2205.38C25935.448,2201.907 25928.929,2199.331 25919.779,2197.651L25878.801,2189.933C25843.144,2183.165 25825.316,2166.301 25825.316,2139.34C25825.316,2121.949 25832.091,2108.139 25845.641,2097.912C25859.191,2087.685 25877.816,2082.571 25901.517,2082.571C25925.55,2082.571 25944.638,2087.812 25958.779,2098.294C25972.92,2108.776 25980.831,2123.469 25982.511,2142.372L25941.76,2142.372C25939.584,2132.784 25935.122,2125.744 25928.376,2121.252C25921.629,2116.761 25912.044,2114.515 25899.621,2114.515C25888.395,2114.515 25879.765,2116.338 25873.733,2119.983C25867.7,2123.628 25864.684,2128.985 25864.684,2136.056C25864.684,2141.341 25866.603,2145.585 25870.441,2148.79C25874.28,2151.995 25880.368,2154.389 25888.706,2155.972L25930.1,2163.831C25948.807,2167.423 25962.528,2173.49 25971.264,2182.033C25980,2190.575 25984.368,2202.102 25984.368,2216.615C25984.368,2235.241 25977.555,2249.747 25963.93,2260.134C25950.304,2270.521 25930.746,2275.714 25905.256,2275.714Z" style="fill-rule:nonzero;"/>
                </g>
                <g transform="matrix(0.890286,0,0,0.890286,-19490.528495,-851.112925)">
                    <path d="M26092.535,2275.714C26072.877,2275.714 26055.792,2271.742 26041.279,2263.798C26026.767,2255.853 26015.573,2244.58 26007.696,2229.977C25999.819,2215.375 25995.881,2198.224 25995.881,2178.524C25995.881,2158.824 25999.771,2141.803 26007.551,2127.462C26015.331,2113.121 26026.35,2102.054 26040.61,2094.261C26054.869,2086.468 26071.621,2082.571 26090.866,2082.571C26109.463,2082.571 26125.496,2086.227 26138.963,2093.538C26152.431,2100.849 26162.821,2111.245 26170.133,2124.727C26177.446,2138.209 26181.102,2154.257 26181.102,2172.87L26181.102,2188.327L26036.303,2188.327C26037.802,2205.248 26043.443,2218.319 26053.225,2227.542C26063.007,2236.765 26076.007,2241.376 26092.225,2241.376C26104.097,2241.376 26113.86,2239.09 26121.516,2234.516C26129.172,2229.943 26134.514,2223.102 26137.541,2213.993L26179.965,2213.993C26175.603,2233.448 26165.739,2248.599 26150.374,2259.445C26135.009,2270.291 26115.73,2275.714 26092.535,2275.714ZM26037.565,2159.106L26140.656,2159.106C26139.021,2145.377 26133.887,2134.857 26125.255,2127.544C26116.622,2120.232 26105.151,2116.576 26090.842,2116.576C26076.633,2116.576 26064.899,2120.256 26055.641,2127.617C26046.382,2134.978 26040.357,2145.474 26037.565,2159.106Z" style="fill-rule:nonzero;"/>
                </g>
                <g transform="matrix(0.890286,0,0,0.890286,-19509.272549,-851.112925)">
                    <path d="M26215.972,2272L26215.972,2128.792L26202.353,2128.792L26202.353,2086.286L26238.465,2086.286L26238.465,2115.589L26251.465,2115.589C26258.233,2105.078 26267.144,2096.999 26278.198,2091.352C26289.252,2085.705 26302.579,2082.881 26318.177,2082.881C26342.939,2082.881 26362.306,2089.835 26376.276,2103.742C26390.246,2117.65 26397.232,2136.242 26397.232,2159.517L26397.232,2272L26355.136,2272L26355.136,2167.028C26355.136,2151.703 26351.013,2140.052 26342.765,2132.073C26334.518,2124.095 26322.464,2120.106 26306.604,2120.106C26290.851,2120.106 26278.823,2124.095 26270.52,2132.073C26262.218,2140.052 26258.067,2151.703 26258.067,2167.028L26258.067,2272L26215.972,2272Z" style="fill-rule:nonzero;"/>
                </g>
                <g transform="matrix(0.890286,0,0,0.890286,-19541.184776,-851.112925)">
                    <path d="M26538.858,2272L26446.703,2272L26446.713,2118.969L26433.273,2118.969L26433.021,2086.286L26447.167,2086.286L26447.167,2030.571L26488.353,2030.571L26488.353,2086.286L26539.331,2086.286L26539.331,2118.969L26488.808,2118.969L26488.808,2238.987L26539.159,2238.987L26538.858,2272Z" style="fill-rule:nonzero;"/>
                </g>
                <g transform="matrix(0.890286,0,0,0.890286,-19549.184776,-851.112925)">
                    <path d="M26561.936,2272L26561.936,2238.571L26667.096,2119.917L26561.936,2119.917L26561.936,2086.286L26719.009,2086.286L26719.009,2119.477L26613.853,2238.368L26714.486,2238.571L26714.486,2272L26561.936,2272Z" style="fill-rule:nonzero;"/>
                </g>
                <g transform="matrix(0.890286,0,0,0.890286,-19562.621479,-851.112925)">
                    <path d="M26823.835,2275.714C26804.177,2275.714 26787.091,2271.742 26772.579,2263.798C26758.067,2255.853 26746.873,2244.58 26738.996,2229.977C26731.119,2215.375 26727.181,2198.224 26727.181,2178.524C26727.181,2158.824 26731.071,2141.803 26738.851,2127.462C26746.631,2113.121 26757.65,2102.054 26771.909,2094.261C26786.169,2086.468 26802.921,2082.571 26822.166,2082.571C26840.763,2082.571 26856.796,2086.227 26870.263,2093.538C26883.731,2100.849 26894.121,2111.245 26901.433,2124.727C26908.746,2138.209 26912.402,2154.257 26912.402,2172.87L26912.402,2188.327L26767.603,2188.327C26769.102,2205.248 26774.743,2218.319 26784.525,2227.542C26794.307,2236.765 26807.307,2241.376 26823.525,2241.376C26835.397,2241.376 26845.16,2239.09 26852.816,2234.516C26860.472,2229.943 26865.814,2223.102 26868.841,2213.993L26911.265,2213.993C26906.903,2233.448 26897.039,2248.599 26881.674,2259.445C26866.309,2270.291 26847.029,2275.714 26823.835,2275.714ZM26768.865,2159.106L26871.956,2159.106C26870.321,2145.377 26865.187,2134.857 26856.555,2127.544C26847.922,2120.232 26836.451,2116.576 26822.142,2116.576C26807.933,2116.576 26796.199,2120.256 26786.941,2127.617C26777.682,2134.978 26771.657,2145.474 26768.865,2159.106Z" style="fill-rule:nonzero;"/>
                </g>
                <g transform="matrix(0.890286,0,0,0.890286,-19576.264115,-851.112925)">
                    <rect x="26938.339" y="2012" width="42.095" height="260" style="fill-rule:nonzero;"/>
                </g>
            </g>
            <g transform="matrix(0.628199,0,0,0.618412,14116.982585,43.45454)">
                <g transform="matrix(323.40876,0,0,323.40876,26336.390366,2272)">
                </g>
                <text x="25806px" y="2272px" style="font-family:'Spectral-Medium', 'Spectral';font-weight:500;font-size:323.409px;">l<tspan x="25887.176px 26029.799px 26196.354px " y="2272px 2272px 2272px ">abs</tspan></text>
            </g>
        </g>
    </g>
</svg>
