<?xml version="1.0" encoding="UTF-8" standalone="no"?>
<!DOCTYPE svg PUBLIC "-//W3C//DTD SVG 1.1//EN" "http://www.w3.org/Graphics/SVG/1.1/DTD/svg11.dtd">
<svg width="100%" height="100%" viewBox="0 0 1753 567" version="1.1" xmlns="http://www.w3.org/2000/svg" xmlns:xlink="http://www.w3.org/1999/xlink" xml:space="preserve" xmlns:serif="http://www.serif.com/" style="fill-rule:evenodd;clip-rule:evenodd;stroke-linejoin:round;stroke-miterlimit:2;">
    <g id="wordmark" transform="matrix(0.910204,0,0,0.965125,-26472.702655,-1018.184269)">
        <rect x="29084.371" y="1054.977" width="1925.674" height="587.415" style="fill:white;fill-opacity:0;"/>
        <g id="wordmark1" serif:id="wordmark" transform="matrix(1.081539,0,0,1.036135,-2420.535682,-61.914278)">
            <g transform="matrix(0.904375,0,0,0.890286,5939.225439,-557.315593)">
                <g transform="matrix(371.428571,0,0,371.428571,25806,2272)">
                    <path d="M0.262,0.01C0.192,0.01 0.138,-0.004 0.098,-0.033C0.057,-0.062 0.035,-0.102 0.032,-0.154L0.124,-0.154C0.128,-0.124 0.141,-0.101 0.164,-0.087C0.187,-0.072 0.221,-0.065 0.265,-0.065C0.343,-0.065 0.382,-0.089 0.382,-0.138C0.382,-0.158 0.376,-0.173 0.364,-0.184C0.352,-0.195 0.332,-0.203 0.304,-0.208L0.194,-0.229C0.101,-0.246 0.055,-0.29 0.055,-0.361C0.055,-0.407 0.072,-0.443 0.107,-0.47C0.142,-0.497 0.19,-0.51 0.251,-0.51C0.313,-0.51 0.363,-0.496 0.4,-0.469C0.437,-0.442 0.459,-0.403 0.464,-0.354L0.373,-0.354C0.367,-0.382 0.354,-0.403 0.334,-0.416C0.313,-0.429 0.285,-0.436 0.249,-0.436C0.214,-0.436 0.188,-0.43 0.17,-0.419C0.151,-0.407 0.142,-0.39 0.142,-0.367C0.142,-0.35 0.148,-0.337 0.16,-0.327C0.172,-0.317 0.191,-0.31 0.217,-0.305L0.327,-0.284C0.376,-0.275 0.412,-0.259 0.435,-0.237C0.457,-0.214 0.469,-0.184 0.469,-0.145C0.469,-0.096 0.451,-0.058 0.415,-0.031C0.379,-0.004 0.328,0.01 0.262,0.01Z" style="fill-rule:nonzero;"/>
                </g>
                <g transform="matrix(371.428571,0,0,371.428571,25979.952532,2272)">
                    <path d="M0.295,0.01C0.243,0.01 0.198,-0.001 0.159,-0.022C0.121,-0.043 0.091,-0.074 0.071,-0.113C0.05,-0.153 0.039,-0.199 0.039,-0.252C0.039,-0.305 0.05,-0.35 0.07,-0.389C0.091,-0.428 0.12,-0.457 0.158,-0.478C0.196,-0.499 0.24,-0.51 0.291,-0.51C0.339,-0.51 0.381,-0.5 0.416,-0.481C0.452,-0.462 0.479,-0.434 0.498,-0.399C0.518,-0.363 0.527,-0.321 0.527,-0.272L0.527,-0.234L0.129,-0.234C0.132,-0.182 0.148,-0.141 0.177,-0.112C0.206,-0.083 0.245,-0.069 0.294,-0.069C0.328,-0.069 0.357,-0.076 0.38,-0.09C0.404,-0.104 0.42,-0.125 0.429,-0.152L0.523,-0.152C0.511,-0.101 0.485,-0.061 0.444,-0.033C0.404,-0.004 0.354,0.01 0.295,0.01ZM0.133,-0.302L0.437,-0.302C0.433,-0.344 0.418,-0.376 0.392,-0.399C0.367,-0.421 0.333,-0.433 0.29,-0.433C0.248,-0.433 0.213,-0.421 0.186,-0.399C0.158,-0.376 0.14,-0.344 0.133,-0.302Z" style="fill-rule:nonzero;"/>
                </g>
                <g transform="matrix(371.428571,0,0,371.428571,26179.285865,2272)">
                    <path d="M0.089,-0L0.089,-0.403L0.041,-0.403L0.041,-0.5L0.141,-0.5L0.141,-0.423L0.176,-0.423C0.193,-0.451 0.217,-0.473 0.247,-0.487C0.277,-0.502 0.312,-0.509 0.352,-0.509C0.417,-0.509 0.468,-0.491 0.505,-0.454C0.542,-0.417 0.561,-0.367 0.561,-0.305L0.561,-0L0.468,-0L0.468,-0.29C0.468,-0.335 0.456,-0.369 0.431,-0.392C0.407,-0.415 0.372,-0.427 0.325,-0.427C0.279,-0.427 0.244,-0.415 0.219,-0.392C0.195,-0.369 0.182,-0.335 0.182,-0.29L0.182,-0L0.089,-0Z" style="fill-rule:nonzero;"/>
                </g>
                <g transform="matrix(371.428571,0,0,371.428571,26400.286054,2272)">
                    <path d="M0.192,-0C0.166,-0 0.145,-0.007 0.13,-0.02C0.116,-0.034 0.108,-0.054 0.108,-0.081L0.108,-0.428L0.015,-0.428L0.015,-0.5L0.109,-0.5L0.109,-0.65L0.201,-0.65L0.201,-0.5L0.332,-0.5L0.332,-0.428L0.202,-0.428L0.202,-0.073L0.345,-0.073L0.345,-0L0.192,-0Z" style="fill-rule:nonzero;"/>
                </g>
                <g transform="matrix(371.428571,0,0,371.428571,26540.190967,2272)">
                    <path d="M0.034,-0L0.034,-0.063L0.335,-0.425L0.049,-0.425L0.049,-0.5L0.446,-0.5L0.446,-0.437L0.145,-0.075L0.451,-0.075L0.451,-0L0.034,-0Z" style="fill-rule:nonzero;"/>
                </g>
                <g transform="matrix(371.428571,0,0,371.428571,26703.000529,2272)">
                    <path d="M0.295,0.01C0.243,0.01 0.198,-0.001 0.159,-0.022C0.121,-0.043 0.091,-0.074 0.071,-0.113C0.05,-0.153 0.039,-0.199 0.039,-0.252C0.039,-0.305 0.05,-0.35 0.07,-0.389C0.091,-0.428 0.12,-0.457 0.158,-0.478C0.196,-0.499 0.24,-0.51 0.291,-0.51C0.339,-0.51 0.381,-0.5 0.416,-0.481C0.452,-0.462 0.479,-0.434 0.498,-0.399C0.518,-0.363 0.527,-0.321 0.527,-0.272L0.527,-0.234L0.129,-0.234C0.132,-0.182 0.148,-0.141 0.177,-0.112C0.206,-0.083 0.245,-0.069 0.294,-0.069C0.328,-0.069 0.357,-0.076 0.38,-0.09C0.404,-0.104 0.42,-0.125 0.429,-0.152L0.523,-0.152C0.511,-0.101 0.485,-0.061 0.444,-0.033C0.404,-0.004 0.354,0.01 0.295,0.01ZM0.133,-0.302L0.437,-0.302C0.433,-0.344 0.418,-0.376 0.392,-0.399C0.367,-0.421 0.333,-0.433 0.29,-0.433C0.248,-0.433 0.213,-0.421 0.186,-0.399C0.158,-0.376 0.14,-0.344 0.133,-0.302Z" style="fill-rule:nonzero;"/>
                </g>
                <g transform="matrix(371.428571,0,0,371.428571,26902.333862,2272)">
                    <rect x="0.073" y="-0.7" width="0.093" height="0.7" style="fill-rule:nonzero;"/>
                </g>
                <g transform="matrix(371.428571,0,0,371.428571,26990.857785,2272)">
                </g>
            </g>
            <g transform="matrix(0.628199,0,0,0.618412,14200.867349,34.645225)">
                <g transform="matrix(323.40876,0,0,323.40876,26336.390366,2272)">
                </g>
                <text x="25806px" y="2272px" style="font-family:'Spectral-Medium', 'Spectral';font-weight:500;font-size:323.409px;">l<tspan x="25887.176px 26029.799px 26196.354px " y="2272px 2272px 2272px ">abs</tspan></text>
            </g>
        </g>
    </g>
</svg>
